<svg width="180" height="180" viewBox="0 0 180 180" fill="none" xmlns="http://www.w3.org/2000/svg">
  <rect width="180" height="180" rx="20" fill="#10b981"/>
  <path d="M90 140C90 140 75 120 75 100C75 80 90 60 90 60C90 60 105 80 105 100C105 120 90 140 90 140Z" fill="#dcfce7"/>
  <path d="M70 130C70 130 60 115 60 100C60 85 70 70 70 70C70 70 80 85 80 100C80 115 70 130 70 130Z" fill="#bbf7d0"/>
  <path d="M110 130C110 130 100 115 100 100C100 85 110 70 110 70C110 70 120 85 120 100C120 115 110 130 110 130Z" fill="#bbf7d0"/>
  <rect x="85" y="130" width="10" height="20" rx="2" fill="#059669"/>
</svg>
